# xmcd
#
# Track frame offsets: 
#        150
#        24525
#        65802
#        93477
#        112520
#        145557
#
# Disc length: 2421 seconds
#
# Revision: 6
# Processed by: cddbd v1.5.2PL0 Copyright (c) Steve Scherf et al.
# Submitted via: ExactAudioCopy v1.0b3
#
DISCID=45097306
DTITLE=Nine Inch Nails - Fixed
DYEAR=1992
DGENRE=Post-Industrial
TTITLE0=Gave Up (Coil Remix)
TTITLE1=Wish (Foetus Remix)
TTITLE2=Happiness In Slavery (Remix)
TTITLE3=Throw This Away
TTITLE4=Fist Fuck (Foetus Remix)
TTITLE5=Screaming Slave
EXTD=
EXTT0=
EXTT1=
EXTT2=
EXTT3=
EXTT4=
EXTT5=
PLAYORDER=
